<svg xmlns="http://www.w3.org/2000/svg" x="0px" y="0px"
viewBox="0 0 172 172"
style=" fill:#000000;"><g fill="none" fill-rule="nonzero" stroke="none" stroke-width="1" stroke-linecap="butt" stroke-linejoin="miter" stroke-miterlimit="10" stroke-dasharray="" stroke-dashoffset="0" font-family="none" font-weight="none" font-size="none" text-anchor="none" style="mix-blend-mode: normal"><path d="M0,172v-172h172v172z" fill="none"></path><g fill="#bdd1fd"><path d="M28.66667,43c-3.956,0 -7.16667,3.21067 -7.16667,7.16667v71.66667c0,3.956 3.21067,7.16667 7.16667,7.16667c3.956,0 7.16667,-3.21067 7.16667,-7.16667v-71.66667c0,-3.956 -3.21067,-7.16667 -7.16667,-7.16667zM85.63607,49.66276c-1.28227,0.06237 -2.57743,0.47726 -3.7653,1.31575l-41.33431,29.17058c-4.042,2.85233 -4.042,8.84949 0,11.70182l41.33431,29.17058c4.7515,3.354 11.2959,-0.03875 11.2959,-5.85092v-58.34114c0,-4.35912 -3.68378,-7.35378 -7.5306,-7.16667zM142.9694,49.66276c-1.28227,0.06237 -2.57743,0.47726 -3.7653,1.31575l-41.33431,29.17058c-4.042,2.85233 -4.042,8.84949 0,11.70182l41.33431,29.17058c4.7515,3.354 11.2959,-0.03875 11.2959,-5.85092v-58.34114c0,-4.35912 -3.68378,-7.35378 -7.5306,-7.16667z"></path></g></g></svg>