<svg xmlns="http://www.w3.org/2000/svg" x="0px" y="0px"
viewBox="0 0 172 172"
style=" fill:#000000;"><g fill="none" fill-rule="nonzero" stroke="none" stroke-width="1" stroke-linecap="butt" stroke-linejoin="miter" stroke-miterlimit="10" stroke-dasharray="" stroke-dashoffset="0" font-family="none" font-weight="none" font-size="none" text-anchor="none" style="mix-blend-mode: normal"><path d="M0,172v-172h172v172z" fill="none"></path><g fill="#bdd1fd"><path d="M143.33333,43c-3.956,0 -7.16667,3.21067 -7.16667,7.16667v71.66667c0,3.956 3.21067,7.16667 7.16667,7.16667c3.956,0 7.16667,-3.21067 7.16667,-7.16667v-71.66667c0,-3.956 -3.21067,-7.16667 -7.16667,-7.16667zM29.0306,49.66276c-3.84682,-0.18712 -7.5306,2.80754 -7.5306,7.16667v58.34114c0,5.81217 6.5444,9.20492 11.2959,5.85092l41.33431,-29.17058c4.042,-2.85233 4.042,-8.84949 0,-11.70182l-41.33431,-29.17058c-1.18787,-0.8385 -2.48303,-1.25338 -3.7653,-1.31575zM86.36393,49.66276c-3.84682,-0.18712 -7.5306,2.80754 -7.5306,7.16667v58.34114c0,5.81217 6.5444,9.20492 11.2959,5.85092l41.33431,-29.17058c4.042,-2.85233 4.042,-8.84949 0,-11.70182l-41.33431,-29.17058c-1.18787,-0.8385 -2.48303,-1.25338 -3.7653,-1.31575z"></path></g></g></svg>