<svg xmlns="http://www.w3.org/2000/svg" x="0px" y="0px"
viewBox="0 0 172 172"
style=" fill:#000000;"><g fill="none" fill-rule="nonzero" stroke="none" stroke-width="1" stroke-linecap="butt" stroke-linejoin="miter" stroke-miterlimit="10" stroke-dasharray="" stroke-dashoffset="0" font-family="none" font-weight="none" font-size="none" text-anchor="none" style="mix-blend-mode: normal"><path d="M0,172v-172h172v172z" fill="none"></path><g fill="#fff"><path d="M64.5,21.5c-7.91917,0 -14.33333,6.41417 -14.33333,14.33333v72.92643c-2.29996,-0.82406 -4.72355,-1.25008 -7.16667,-1.25976c-11.87412,0 -21.5,9.62588 -21.5,21.5c0,11.87412 9.62588,21.5 21.5,21.5c11.87412,0 21.5,-9.62588 21.5,-21.5v-57.33333c0,-3.956 3.21067,-7.16667 7.16667,-7.16667h50.16667c3.956,0 7.16667,3.21067 7.16667,7.16667v37.0931c-2.29996,-0.82406 -4.72355,-1.25008 -7.16667,-1.25976c-11.87412,0 -21.5,9.62588 -21.5,21.5c0,11.87412 9.62588,21.5 21.5,21.5c11.87412,0 21.5,-9.62588 21.5,-21.5v-93.16667c0,-7.91917 -6.41417,-14.33333 -14.33333,-14.33333z"></path></g></g></svg>